<svg version="1.1" xmlns="http://www.w3.org/2000/svg" viewBox="0 0 962.5716883072798 613.199251912449" width="962.5716883072798" height="613.199251912449" filter="invert(93%) hue-rotate(180deg)">
  <!-- svg-source:excalidraw -->
  
  <defs>
    <style class="style-fonts">
      @font-face {
        font-family: "Virgil";
        src: url("https://excalidraw.com/Virgil.woff2");
      }
      @font-face {
        font-family: "Cascadia";
        src: url("https://excalidraw.com/Cascadia.woff2");
      }
    </style>
    
  </defs>
  <rect x="0" y="0" width="962.5716883072798" height="613.199251912449" fill="#ffffff"></rect><g stroke-linecap="round" transform="translate(10 10) rotate(0 362.28621325573033 215.18607434112278)"><path d="M32 0 C224.11 -2.63, 417.84 -2.88, 692.57 0 M32 0 C271.81 -1.14, 511.5 -0.76, 692.57 0 M692.57 0 C715.15 1.25, 725.97 12.14, 724.57 32 M692.57 0 C713.06 0.71, 723.37 11.08, 724.57 32 M724.57 32 C723.31 118.75, 724.04 204.36, 724.57 398.37 M724.57 32 C724.14 163.72, 723.9 294.44, 724.57 398.37 M724.57 398.37 C723.91 418.82, 712.13 429.57, 692.57 430.37 M724.57 398.37 C723.41 418.41, 713.09 429.59, 692.57 430.37 M692.57 430.37 C436.84 428.72, 179.97 428.69, 32 430.37 M692.57 430.37 C467.77 428.23, 243.43 427.8, 32 430.37 M32 430.37 C9.92 431.53, 1.63 417.73, 0 398.37 M32 430.37 C11.91 432.46, 0.49 419.27, 0 398.37 M0 398.37 C-2.33 318.98, -3.19 240.86, 0 32 M0 398.37 C1.54 317.78, 1.48 237.37, 0 32 M0 32 C1.26 11.25, 11.07 -0.79, 32 0 M0 32 C-1.49 11.71, 10.38 1.19, 32 0" stroke="#f08c00" stroke-width="1" fill="none"></path></g><g transform="translate(299.40629229625756 15) rotate(0 72.87992095947266 12.5)"><text x="72.87992095947266" y="0" font-family="Virgil, Segoe UI Emoji" font-size="20px" fill="#f08c00" text-anchor="middle" style="white-space: pre;" direction="ltr" dominant-baseline="text-before-edge">dioxus (server)</text></g><g stroke-linecap="round" transform="translate(68.27005410867355 58.888947913845186) rotate(0 200.24546043121734 48.038890335120186)"><path d="M24.02 0 C150.37 -0.88, 274.93 -0.08, 376.47 0 M24.02 0 C153.78 0.29, 283.46 -0.73, 376.47 0 M376.47 0 C390.5 1.64, 399.65 8.39, 400.49 24.02 M376.47 0 C392.9 0.13, 399.58 5.82, 400.49 24.02 M400.49 24.02 C398.83 39.52, 401.72 54.6, 400.49 72.06 M400.49 24.02 C399.31 40.78, 400.98 58.42, 400.49 72.06 M400.49 72.06 C402.19 87.03, 394.14 97.82, 376.47 96.08 M400.49 72.06 C400.09 86.82, 391.1 93.94, 376.47 96.08 M376.47 96.08 C263.31 97.61, 149.21 97.48, 24.02 96.08 M376.47 96.08 C254.18 98.6, 132.23 98.19, 24.02 96.08 M24.02 96.08 C8.29 96.25, 0.43 89.4, 0 72.06 M24.02 96.08 C9.44 94.83, 2.04 86.51, 0 72.06 M0 72.06 C0.29 61.69, 0.75 52.1, 0 24.02 M0 72.06 C0.69 53.12, 0.91 36.26, 0 24.02 M0 24.02 C1.8 8.22, 9.55 0.49, 24.02 0 M0 24.02 C-0.68 7.7, 8.84 1.53, 24.02 0" stroke="#1971c2" stroke-width="1" fill="none"></path></g><g transform="translate(212.14557282846522 63.888947913845186) rotate(0 56.36994171142578 12.5)"><text x="56.36994171142578" y="0" font-family="Virgil, Segoe UI Emoji" font-size="20px" fill="#1971c2" text-anchor="middle" style="white-space: pre;" direction="ltr" dominant-baseline="text-before-edge">http server</text></g><g stroke-linecap="round" transform="translate(194.58985828877508 368.7686998437151) rotate(0 127.92795915655017 17.5)"><path d="M8.75 0 C89.21 0.64, 168.77 0.82, 247.11 0 M8.75 0 C92.97 0.17, 177.47 0.18, 247.11 0 M247.11 0 C252.6 0.32, 255.61 3.19, 255.86 8.75 M247.11 0 C253.16 0.47, 256.51 2.8, 255.86 8.75 M255.86 8.75 C256.21 13.7, 256.1 17.68, 255.86 26.25 M255.86 8.75 C255.71 13.42, 255.76 18.1, 255.86 26.25 M255.86 26.25 C255.8 31.61, 252.72 35.16, 247.11 35 M255.86 26.25 C256.35 32.54, 252.34 35.29, 247.11 35 M247.11 35 C156.99 35.77, 67.74 35.91, 8.75 35 M247.11 35 C153.8 35.02, 59.98 34.83, 8.75 35 M8.75 35 C3.11 35.3, 0.31 31.56, 0 26.25 M8.75 35 C3.3 34.36, -0.05 31.85, 0 26.25 M0 26.25 C0.14 20.75, 0.03 15.53, 0 8.75 M0 26.25 C-0.03 19.63, -0.2 13.6, 0 8.75 M0 8.75 C0.26 2.61, 3.44 -0.47, 8.75 0 M0 8.75 C0.16 2.51, 3.45 0.27, 8.75 0" stroke="#2f9e44" stroke-width="1" fill="none"></path></g><g transform="translate(289.3478497939582 373.7686998437151) rotate(0 33.16996765136719 12.5)"><text x="33.16996765136719" y="0" font-family="Virgil, Segoe UI Emoji" font-size="20px" fill="#2f9e44" text-anchor="middle" style="white-space: pre;" direction="ltr" dominant-baseline="text-before-edge">webapp</text></g><g stroke-linecap="round" transform="translate(19.607839279074597 573.199251912449) rotate(0 205.34127880261326 15)"><path d="M7.5 0 C91.12 -0.08, 174.2 0.06, 403.18 0 M7.5 0 C159.87 -0.14, 312.04 -0.11, 403.18 0 M403.18 0 C408.07 0.42, 410.63 2.66, 410.68 7.5 M403.18 0 C408.23 -0.42, 410.45 3.02, 410.68 7.5 M410.68 7.5 C410.39 10.65, 410.42 14.04, 410.68 22.5 M410.68 7.5 C410.75 11.28, 410.64 15.15, 410.68 22.5 M410.68 22.5 C410.44 27.26, 408.01 30.38, 403.18 30 M410.68 22.5 C410.49 27.71, 407.92 30.42, 403.18 30 M403.18 30 C268.78 29.26, 133.81 29.77, 7.5 30 M403.18 30 C295.73 30.12, 188.34 30.11, 7.5 30 M7.5 30 C2.51 29.81, -0.11 27.43, 0 22.5 M7.5 30 C2.24 29.81, -0.42 27.77, 0 22.5 M0 22.5 C-0.31 18.57, -0.2 14.96, 0 7.5 M0 22.5 C0.12 17.81, -0.12 13.43, 0 7.5 M0 7.5 C-0.22 2.17, 2.3 -0.49, 7.5 0 M0 7.5 C-0.47 2.33, 2.16 -0.18, 7.5 0" stroke="#0c8599" stroke-width="1" fill="none"></path></g><g transform="translate(203.30913395082848 578.199251912449) rotate(0 21.639984130859375 10)"><text x="21.639984130859375" y="0" font-family="Virgil, Segoe UI Emoji" font-size="16px" fill="#0c8599" text-anchor="middle" style="white-space: pre;" direction="ltr" dominant-baseline="text-before-edge">Client</text></g><g stroke-linecap="round"><g transform="translate(320.44157430684504 410.4642948693869) rotate(0 -0.003487652025000898 74.57253476042581)"><path d="M-0.06 0.07 C-0.05 24.89, -0.03 124.19, -0.05 148.99 M0.18 -0.03 C0.18 24.82, -0.18 124.33, -0.18 149.17" stroke="#1e1e1e" stroke-width="1" fill="none"></path></g><g transform="translate(320.44157430684504 410.4642948693869) rotate(0 -0.003487652025000898 74.57253476042581)"><path d="M-0.25 149 L-6.73 135.42 L6.22 135.51 L0.07 148.89" stroke="none" stroke-width="0" fill="#1e1e1e" fill-rule="evenodd"></path><path d="M-0.18 149.17 C-1.48 146.1, -3 142.96, -6.49 135.56 M-0.18 149.17 C-1.73 145.94, -3.19 142.77, -6.49 135.56 M-6.49 135.56 C-3.71 135.63, -1.06 135.62, 6.18 135.59 M-6.49 135.56 C-3.26 135.6, -0.17 135.55, 6.18 135.59 M6.18 135.59 C3.97 140.2, 2.27 144.48, -0.18 149.17 M6.18 135.59 C3.99 140.29, 1.7 145.3, -0.18 149.17 M-0.18 149.17 C-0.18 149.17, -0.18 149.17, -0.18 149.17 M-0.18 149.17 C-0.18 149.17, -0.18 149.17, -0.18 149.17" stroke="#1e1e1e" stroke-width="1" fill="none"></path></g></g><mask></mask><g stroke-linecap="round" transform="translate(810.8231398925197 356.6907597464897) rotate(0 70.87427420738004 25)"><path d="M12.5 0 C56.4 -2.05, 96.8 -1.08, 129.25 0 M12.5 0 C36.94 0.63, 60.39 1.06, 129.25 0 M129.25 0 C137.57 -0.12, 143.45 5.19, 141.75 12.5 M129.25 0 C135.48 -0.33, 139.58 5.68, 141.75 12.5 M141.75 12.5 C143.77 24.03, 142.46 33.54, 141.75 37.5 M141.75 12.5 C140.76 18.86, 141.04 24.88, 141.75 37.5 M141.75 37.5 C143.22 43.92, 139.29 50.9, 129.25 50 M141.75 37.5 C140.85 44.9, 136.55 49.83, 129.25 50 M129.25 50 C87.98 50, 43.4 51.73, 12.5 50 M129.25 50 C96.49 49.06, 62.83 50.84, 12.5 50 M12.5 50 C2.64 48.77, -1.39 45.1, 0 37.5 M12.5 50 C2.83 50.22, -1.12 47.65, 0 37.5 M0 37.5 C2 28.57, -1.15 18.46, 0 12.5 M0 37.5 C0.23 28.45, -0.59 20.02, 0 12.5 M0 12.5 C-1.47 6.09, 6.04 0.64, 12.5 0 M0 12.5 C-1.68 3.71, 5.96 -0.4, 12.5 0" stroke="#6741d9" stroke-width="1" fill="none"></path></g><g transform="translate(845.537433325974 361.6907597464897) rotate(0 36.15998077392578 20)"><text x="36.15998077392578" y="0" font-family="Virgil, Segoe UI Emoji" font-size="16px" fill="#6741d9" text-anchor="middle" style="white-space: pre;" direction="ltr" dominant-baseline="text-before-edge">Surreal </text><text x="36.15998077392578" y="20" font-family="Virgil, Segoe UI Emoji" font-size="16px" fill="#6741d9" text-anchor="middle" style="white-space: pre;" direction="ltr" dominant-baseline="text-before-edge">instances</text></g><g stroke-linecap="round"><g transform="translate(456.075732139298 386.11201849387044) rotate(0 175.74982100541263 0.36178554905291094)"><path d="M-0.04 0.01 C58.49 0.17, 292.72 0.73, 351.28 0.84 M0.2 -0.12 C58.78 0.01, 292.98 0.47, 351.54 0.61" stroke="#1e1e1e" stroke-width="1" fill="none"></path></g><g transform="translate(456.075732139298 386.11201849387044) rotate(0 175.74982100541263 0.36178554905291094)"><path d="M-0.04 0 L13.33 -6.03 L13.52 6.49 L-0.05 -0.26" stroke="none" stroke-width="0" fill="#1e1e1e" fill-rule="evenodd"></path><path d="M-0.04 0.01 C4.63 -2.35, 9.37 -4.47, 13.57 -6.3 M-0.04 0.01 C2.86 -1.26, 5.78 -2.61, 13.57 -6.3 M13.57 -6.3 C13.53 -3, 13.52 0.13, 13.54 6.38 M13.57 -6.3 C13.48 -2.92, 13.59 0.5, 13.54 6.38 M13.54 6.38 C8.09 3.83, 2.83 1.29, -0.04 0.01 M13.54 6.38 C9.08 4.3, 4.62 2.1, -0.04 0.01 M-0.04 0.01 C-0.04 0.01, -0.04 0.01, -0.04 0.01 M-0.04 0.01 C-0.04 0.01, -0.04 0.01, -0.04 0.01" stroke="#1e1e1e" stroke-width="1" fill="none"></path></g><g transform="translate(456.075732139298 386.11201849387044) rotate(0 175.74982100541263 0.36178554905291094)"><path d="M351.55 0.61 L337.7 7.2 L337.95 -5.64 L351.53 0.35" stroke="none" stroke-width="0" fill="#1e1e1e" fill-rule="evenodd"></path><path d="M351.54 0.61 C346.88 2.56, 342.3 4.76, 337.93 6.92 M351.54 0.61 C348.7 2.02, 345.86 3.34, 337.93 6.92 M337.93 6.92 C337.9 3.83, 337.92 0.56, 337.96 -5.76 M337.93 6.92 C337.87 3.47, 338 0.04, 337.96 -5.76 M337.96 -5.76 C343.08 -3.38, 348.37 -0.97, 351.54 0.61 M337.96 -5.76 C342.46 -3.64, 346.95 -1.64, 351.54 0.61 M351.54 0.61 C351.54 0.61, 351.54 0.61, 351.54 0.61 M351.54 0.61 C351.54 0.61, 351.54 0.61, 351.54 0.61" stroke="#1e1e1e" stroke-width="1" fill="none"></path></g></g><mask></mask><g stroke-linecap="round" transform="translate(310.20968344950666 263.4228983582724) rotate(0 71.15112684100257 35)"><path d="M17.5 0 C51.29 -0.19, 89.39 -0.18, 124.8 0 M17.5 0 C44.82 -0.79, 74.09 0.14, 124.8 0 M124.8 0 C135.69 1.99, 140.37 6.32, 142.3 17.5 M124.8 0 C134.62 0.06, 140.5 5.07, 142.3 17.5 M142.3 17.5 C141.72 23.91, 140.28 31.28, 142.3 52.5 M142.3 17.5 C142.18 24.36, 141.97 32.17, 142.3 52.5 M142.3 52.5 C141.54 64.98, 134.71 68.53, 124.8 70 M142.3 52.5 C143 62.61, 135.73 67.81, 124.8 70 M124.8 70 C89.5 68.17, 58.32 70.8, 17.5 70 M124.8 70 C89.71 69.11, 53.52 69.33, 17.5 70 M17.5 70 C6.99 69.14, 0.66 63.74, 0 52.5 M17.5 70 C3.72 70.74, 1.3 64.11, 0 52.5 M0 52.5 C-0.89 39.96, 1.31 29.1, 0 17.5 M0 52.5 C-0.66 39.5, -1.1 27.25, 0 17.5 M0 17.5 C0.78 3.88, 6.7 1.46, 17.5 0 M0 17.5 C-2 4.5, 4.03 -1.41, 17.5 0" stroke="#6741d9" stroke-width="1" fill="none"></path></g><g transform="translate(344.43283940427887 268.4228983582724) rotate(0 36.92797088623047 30)"><text x="36.92797088623047" y="0" font-family="Virgil, Segoe UI Emoji" font-size="16px" fill="#6741d9" text-anchor="middle" style="white-space: pre;" direction="ltr" dominant-baseline="text-before-edge">Embedded</text><text x="36.92797088623047" y="20" font-family="Virgil, Segoe UI Emoji" font-size="16px" fill="#6741d9" text-anchor="middle" style="white-space: pre;" direction="ltr" dominant-baseline="text-before-edge">Surrealdb</text><text x="36.92797088623047" y="40" font-family="Virgil, Segoe UI Emoji" font-size="16px" fill="#6741d9" text-anchor="middle" style="white-space: pre;" direction="ltr" dominant-baseline="text-before-edge">RocksDB</text></g><g stroke-linecap="round"><g transform="translate(258.8559996040997 162.4889858856999) rotate(0 -0.05192165867970289 98.95884260098381)"><path d="M0.02 0.1 C0.05 33.11, 0.02 164.93, 0.03 197.89 M-0.14 0.02 C-0.12 33, -0.09 164.75, -0.07 197.69" stroke="#1e1e1e" stroke-width="1" fill="none"></path></g><g transform="translate(258.8559996040997 162.4889858856999) rotate(0 -0.05192165867970289 98.95884260098381)"><path d="M-0.09 197.44 L-6.45 184.27 L6.15 183.87 L-0.24 197.74" stroke="none" stroke-width="0" fill="#1e1e1e" fill-rule="evenodd"></path><path d="M-0.07 197.69 C-1.23 194.89, -2.56 192.09, -6.41 184.1 M-0.07 197.69 C-2.52 192.49, -4.76 187.54, -6.41 184.1 M-6.41 184.1 C-2.66 184.25, 1.07 184.18, 6.26 184.09 M-6.41 184.1 C-2.24 184.17, 2.02 184.09, 6.26 184.09 M6.26 184.09 C4.34 187.91, 2.61 191.73, -0.07 197.69 M6.26 184.09 C4.28 188.11, 2.54 192.31, -0.07 197.69 M-0.07 197.69 C-0.07 197.69, -0.07 197.69, -0.07 197.69 M-0.07 197.69 C-0.07 197.69, -0.07 197.69, -0.07 197.69" stroke="#1e1e1e" stroke-width="1" fill="none"></path></g></g><mask></mask><g stroke-linecap="round"><g transform="translate(91.52630567778965 163.07614732352113) rotate(0 0.03970598005071224 200.32601632642553)"><path d="M0.1 0.13 C0.1 66.9, 0.13 333.87, 0.1 400.58 M-0.03 0.08 C-0.05 66.81, 0.06 333.65, 0.03 400.39" stroke="#1e1e1e" stroke-width="1" fill="none"></path></g><g transform="translate(91.52630567778965 163.07614732352113) rotate(0 0.03970598005071224 200.32601632642553)"><path d="M-0.05 0.41 L6.65 13.53 L-6.12 13.88 L-0.03 -0.09" stroke="none" stroke-width="0" fill="#1e1e1e" fill-rule="evenodd"></path><path d="M0.1 0.13 C2.62 5.27, 4.97 10.01, 6.44 13.73 M0.1 0.13 C1.76 3.68, 3.34 7.19, 6.44 13.73 M6.44 13.73 C2.45 13.62, -1.92 13.59, -6.24 13.73 M6.44 13.73 C2.25 13.73, -1.89 13.75, -6.24 13.73 M-6.24 13.73 C-3.63 8.32, -1.31 3.23, 0.1 0.13 M-6.24 13.73 C-4.48 10.02, -2.85 6.36, 0.1 0.13 M0.1 0.13 C0.1 0.13, 0.1 0.13, 0.1 0.13 M0.1 0.13 C0.1 0.13, 0.1 0.13, 0.1 0.13" stroke="#1e1e1e" stroke-width="1" fill="none"></path></g></g><mask></mask><g stroke-linecap="round" transform="translate(13.936592079520778 467.8955065995284) rotate(0 77.09871154900804 25)"><path d="M12.5 0 C48.33 -3.26, 77.04 1.22, 141.7 0 C150.9 -0.68, 155.38 3.57, 154.2 12.5 C151.35 20.52, 157.5 25.24, 154.2 37.5 C153.03 42.54, 153.45 47.74, 141.7 50 C102.86 49.82, 70.63 50.94, 12.5 50 C3.99 49.47, -3.21 48.69, 0 37.5 C-2.69 30.42, 3.16 27.14, 0 12.5 C-1.56 1.12, 3.47 -0.88, 12.5 0" stroke="none" stroke-width="0" fill="#ffffff"></path><path d="M12.5 0 C44.78 -0.58, 74.31 -0.52, 141.7 0 M12.5 0 C38.91 -0.44, 65.54 -0.19, 141.7 0 M141.7 0 C149.54 -1.54, 153.69 4.65, 154.2 12.5 M141.7 0 C148.57 1.51, 155.6 2.34, 154.2 12.5 M154.2 12.5 C152.41 22.93, 154.81 31.81, 154.2 37.5 M154.2 12.5 C154.86 19.6, 153.98 26.34, 154.2 37.5 M154.2 37.5 C152.62 45.82, 148.82 48.89, 141.7 50 M154.2 37.5 C153.85 46.88, 151.5 51.47, 141.7 50 M141.7 50 C91.14 47.96, 40.59 47.77, 12.5 50 M141.7 50 C96.29 50.1, 52.09 50.08, 12.5 50 M12.5 50 C3.99 48.86, -1.45 44.31, 0 37.5 M12.5 50 C4.89 49.14, 0.83 47.95, 0 37.5 M0 37.5 C-1.14 29.65, 0.06 27.27, 0 12.5 M0 37.5 C0.63 27.39, 0.25 17.14, 0 12.5 M0 12.5 C-1.56 4.22, 5.32 -1.07, 12.5 0 M0 12.5 C1.98 2.64, 3.83 1.1, 12.5 0" stroke="#6741d9" stroke-width="1" fill="none"></path></g><g transform="translate(40.54733518370449 472.8955065995284) rotate(0 50.48796844482422 20)"><text x="50.48796844482422" y="0" font-family="Virgil, Segoe UI Emoji" font-size="16px" fill="#6741d9" text-anchor="middle" style="white-space: pre;" direction="ltr" dominant-baseline="text-before-edge">Surrealytics </text><text x="50.48796844482422" y="20" font-family="Virgil, Segoe UI Emoji" font-size="16px" fill="#6741d9" text-anchor="middle" style="white-space: pre;" direction="ltr" dominant-baseline="text-before-edge">SDK</text></g><g stroke-linecap="round"><g transform="translate(386.3861316495986 161.90182444787865) rotate(0 0.036418571151557444 50.26722296016368)"><path d="M0.1 0.07 C0.12 16.81, 0.06 83.83, 0.05 100.55 M-0.02 -0.02 C-0.02 16.67, -0.03 83.57, -0.03 100.34" stroke="#1e1e1e" stroke-width="1" fill="none"></path></g><g transform="translate(386.3861316495986 161.90182444787865) rotate(0 0.036418571151557444 50.26722296016368)"><path d="M0.28 0.28 L6.16 13.63 L-6.22 13.79 L-0.05 0.03" stroke="none" stroke-width="0" fill="#1e1e1e" fill-rule="evenodd"></path><path d="M0.1 0.07 C1.95 3.87, 3.71 7.6, 6.44 13.67 M0.1 0.07 C1.94 3.95, 3.66 7.68, 6.44 13.67 M6.44 13.67 C3.53 13.85, 0.25 13.7, -6.24 13.66 M6.44 13.67 C2.24 13.67, -2.06 13.74, -6.24 13.66 M-6.24 13.66 C-4.3 9.82, -2.81 5.88, 0.1 0.07 M-6.24 13.66 C-4.77 10.52, -3.22 7.19, 0.1 0.07 M0.1 0.07 C0.1 0.07, 0.1 0.07, 0.1 0.07 M0.1 0.07 C0.1 0.07, 0.1 0.07, 0.1 0.07" stroke="#1e1e1e" stroke-width="1" fill="none"></path></g><g transform="translate(386.3861316495986 161.90182444787865) rotate(0 0.036418571151557444 50.26722296016368)"><path d="M0.14 100.55 L-6.64 86.7 L6.33 86.88 L-0.18 100.3" stroke="none" stroke-width="0" fill="#1e1e1e" fill-rule="evenodd"></path><path d="M-0.03 100.34 C-1.68 96.7, -3.4 92.98, -6.37 86.75 M-0.03 100.34 C-1.68 96.66, -3.48 92.85, -6.37 86.75 M-6.37 86.75 C-3.18 86.89, -0.36 86.74, 6.31 86.75 M-6.37 86.75 C-2.06 86.73, 2.14 86.8, 6.31 86.75 M6.31 86.75 C4.7 90.58, 2.6 94.34, -0.03 100.34 M6.31 86.75 C4.77 90.05, 3.32 93.16, -0.03 100.34 M-0.03 100.34 C-0.03 100.34, -0.03 100.34, -0.03 100.34 M-0.03 100.34 C-0.03 100.34, -0.03 100.34, -0.03 100.34" stroke="#1e1e1e" stroke-width="1" fill="none"></path></g></g><mask></mask><g stroke-linecap="round" transform="translate(589.5715759032446 74.94594356160576) rotate(0 64.48162914075408 25)"><path d="M12.5 0 C51.72 -1.54, 86.67 -0.88, 116.46 0 C121.98 3.58, 130.66 4.37, 128.96 12.5 C130.87 19.62, 129.17 20.36, 128.96 37.5 C131.24 45.05, 126.66 53.17, 116.46 50 C77.11 52.58, 38.53 53.72, 12.5 50 C7.6 47, -0.5 44.79, 0 37.5 C-1.99 31.85, 2.4 27.71, 0 12.5 C-1.74 1.36, 5.11 -0.3, 12.5 0" stroke="none" stroke-width="0" fill="#ffffff"></path><path d="M12.5 0 C42.5 -1.36, 74.13 -2.02, 116.46 0 M12.5 0 C35.39 1.52, 57.92 1.33, 116.46 0 M116.46 0 C125.33 -0.59, 129.59 2.77, 128.96 12.5 M116.46 0 C126.48 -1.62, 129.19 5.3, 128.96 12.5 M128.96 12.5 C129.58 18.65, 128.7 26.39, 128.96 37.5 M128.96 12.5 C128.08 17.46, 128.79 24.65, 128.96 37.5 M128.96 37.5 C128.41 47.81, 125.46 51.57, 116.46 50 M128.96 37.5 C128.32 44.84, 123.91 52.22, 116.46 50 M116.46 50 C85.52 51.53, 53.65 51.38, 12.5 50 M116.46 50 C89.99 49.63, 61.84 49.32, 12.5 50 M12.5 50 C3.33 50.24, -0.52 44.67, 0 37.5 M12.5 50 C3.15 51.12, -2.13 44.9, 0 37.5 M0 37.5 C0.04 28.17, -0.8 22.1, 0 12.5 M0 37.5 C0.66 29.07, 0.33 20.46, 0 12.5 M0 12.5 C0.26 2.42, 2.63 -1.91, 12.5 0 M0 12.5 C0.9 3.35, 2.25 -0.8, 12.5 0" stroke="#846358" stroke-width="1" fill="none"></path></g><g transform="translate(631.221219570366 79.94594356160576) rotate(0 22.831985473632812 20)"><text x="22.831985473632812" y="0" font-family="Virgil, Segoe UI Emoji" font-size="16px" fill="#846358" text-anchor="middle" style="white-space: pre;" direction="ltr" dominant-baseline="text-before-edge">Query</text><text x="22.831985473632812" y="20" font-family="Virgil, Segoe UI Emoji" font-size="16px" fill="#846358" text-anchor="middle" style="white-space: pre;" direction="ltr" dominant-baseline="text-before-edge">Cache</text></g><g stroke-linecap="round"><g transform="translate(475.9469127330485 101.80869702286361) rotate(0 52.275184267364125 0.31721792051331477)"><path d="M-0.1 0.04 C17.33 0.12, 87.2 0.48, 104.65 0.57 M0.11 -0.07 C17.52 0.03, 87.18 0.59, 104.58 0.71" stroke="#1e1e1e" stroke-width="1" fill="none"></path></g><g transform="translate(475.9469127330485 101.80869702286361) rotate(0 52.275184267364125 0.31721792051331477)"><path d="M0.18 0.1 L13.5 -6.37 L13.57 6.49 L0.07 0.27" stroke="none" stroke-width="0" fill="#1e1e1e" fill-rule="evenodd"></path><path d="M-0.1 0.04 C4.72 -2.03, 9.29 -4.3, 13.52 -6.23 M-0.1 0.04 C2.93 -1.39, 5.92 -2.87, 13.52 -6.23 M13.52 -6.23 C13.59 -3.12, 13.61 -0.06, 13.46 6.45 M13.52 -6.23 C13.56 -3.38, 13.48 -0.45, 13.46 6.45 M13.46 6.45 C8.6 3.92, 3.38 1.68, -0.1 0.04 M13.46 6.45 C8.76 4.17, 4.31 2.03, -0.1 0.04 M-0.1 0.04 C-0.1 0.04, -0.1 0.04, -0.1 0.04 M-0.1 0.04 C-0.1 0.04, -0.1 0.04, -0.1 0.04" stroke="#1e1e1e" stroke-width="1" fill="none"></path></g><g transform="translate(475.9469127330485 101.80869702286361) rotate(0 52.275184267364125 0.31721792051331477)"><path d="M104.87 0.77 L90.91 6.81 L91.14 -5.69 L104.76 0.94" stroke="none" stroke-width="0" fill="#1e1e1e" fill-rule="evenodd"></path><path d="M104.58 0.71 C99.86 2.99, 94.89 5.1, 90.94 6.94 M104.58 0.71 C101.53 2.1, 98.43 3.4, 90.94 6.94 M90.94 6.94 C91.03 3.86, 91.08 0.73, 91.03 -5.74 M90.94 6.94 C91.01 3.95, 90.97 1.03, 91.03 -5.74 M91.03 -5.74 C96.25 -3.46, 101.1 -0.92, 104.58 0.71 M91.03 -5.74 C95.54 -3.65, 100.3 -1.41, 104.58 0.71 M104.58 0.71 C104.58 0.71, 104.58 0.71, 104.58 0.71 M104.58 0.71 C104.58 0.71, 104.58 0.71, 104.58 0.71" stroke="#1e1e1e" stroke-width="1" fill="none"></path></g></g><mask></mask><g stroke-linecap="round" transform="translate(115.43829232014195 109.02510822980241) rotate(0 33.15999102854562 15)"><path d="M7.5 0 C16.06 1.12, 26.71 -0.01, 58.82 0 C63.54 0.29, 66.76 2.06, 66.32 7.5 C66.03 12.48, 66.66 16.29, 66.32 22.5 C64.32 25.47, 62.26 27.92, 58.82 30 C46.22 29.78, 30.87 31.65, 7.5 30 C1.02 30.18, 0.7 25.8, 0 22.5 C0.7 19.75, -1.5 14.6, 0 7.5 C-1.75 1.96, 1.12 0.72, 7.5 0" stroke="none" stroke-width="0" fill="#ffffff"></path><path d="M7.5 0 C22.24 -0.32, 37.57 -0.06, 58.82 0 M7.5 0 C18.19 0.08, 29.01 -0.11, 58.82 0 M58.82 0 C64.25 -0.16, 66.76 2.16, 66.32 7.5 M58.82 0 C63.67 -0.03, 65.9 2.49, 66.32 7.5 M66.32 7.5 C66 11.69, 66.47 15.37, 66.32 22.5 M66.32 7.5 C66.46 12.97, 66.14 18.73, 66.32 22.5 M66.32 22.5 C66.26 27.08, 64.29 29.68, 58.82 30 M66.32 22.5 C65.87 27.37, 63.26 30.46, 58.82 30 M58.82 30 C40.82 29.53, 22.86 30.01, 7.5 30 M58.82 30 C40.83 29.79, 22.72 29.87, 7.5 30 M7.5 30 C2.19 30.38, 0.49 27.15, 0 22.5 M7.5 30 C3 29.6, -0.15 27.75, 0 22.5 M0 22.5 C-0.24 19.02, -0.25 15.27, 0 7.5 M0 22.5 C-0.17 17.8, 0.02 13.2, 0 7.5 M0 7.5 C0.1 2.76, 2.4 -0.29, 7.5 0 M0 7.5 C-0.29 2.62, 2.56 0.56, 7.5 0" stroke="#e03131" stroke-width="1" fill="none"></path></g><g transform="translate(126.48629146636335 114.02510822980241) rotate(0 22.11199188232422 10)"><text x="22.11199188232422" y="0" font-family="Virgil, Segoe UI Emoji" font-size="16px" fill="#e03131" text-anchor="middle" style="white-space: pre;" direction="ltr" dominant-baseline="text-before-edge">REST</text></g><g stroke-linecap="round" transform="translate(195.64579198747902 108.76288202026706) rotate(0 49.03143972596922 15)"><path d="M7.5 0 C35.33 1.93, 63.64 -0.6, 90.56 0 C96.2 0.18, 98.93 0.58, 98.06 7.5 C99.3 10.73, 96.73 13.03, 98.06 22.5 C98.02 26.99, 95.86 30.22, 90.56 30 C55.43 32.52, 24.77 31.19, 7.5 30 C1.8 29.13, -0.54 26.89, 0 22.5 C0.15 17.53, -0.97 14.79, 0 7.5 C0.35 1.58, 3.64 1.48, 7.5 0" stroke="none" stroke-width="0" fill="#ffffff"></path><path d="M7.5 0 C36.41 -0.19, 64.09 0.32, 90.56 0 M7.5 0 C25.36 -0.17, 43.31 -0.29, 90.56 0 M90.56 0 C95.42 0.14, 97.84 2.43, 98.06 7.5 M90.56 0 C95.07 -0.38, 98.26 2.39, 98.06 7.5 M98.06 7.5 C98.4 11.97, 98.28 15.99, 98.06 22.5 M98.06 7.5 C97.97 12.94, 97.97 18.49, 98.06 22.5 M98.06 22.5 C97.67 27.96, 95.13 30.49, 90.56 30 M98.06 22.5 C97.58 27.7, 95.11 30.39, 90.56 30 M90.56 30 C70.28 29.99, 50.41 30.25, 7.5 30 M90.56 30 C70.75 30, 51.26 29.88, 7.5 30 M7.5 30 C2.95 29.98, -0.48 27.67, 0 22.5 M7.5 30 C3.03 29.44, 0.15 27.15, 0 22.5 M0 22.5 C0.29 17.04, 0.34 12.09, 0 7.5 M0 22.5 C0.05 17.81, 0.07 12.93, 0 7.5 M0 7.5 C0.24 2.91, 2.75 0.04, 7.5 0 M0 7.5 C-0.53 2.13, 2.25 0.5, 7.5 0" stroke="#e03131" stroke-width="1" fill="none"></path></g><g transform="translate(207.56525508991308 113.76288202026706) rotate(0 37.111976623535156 10)"><text x="37.111976623535156" y="0" font-family="Virgil, Segoe UI Emoji" font-size="16px" fill="#e03131" text-anchor="middle" style="white-space: pre;" direction="ltr" dominant-baseline="text-before-edge">GRAPHQL</text></g><g stroke-linecap="round" transform="translate(305.6122579624848 108.76288202026711) rotate(0 49.03143972596911 15.000000000000028)"><path d="M7.5 0 C28.42 1.1, 52.88 0.21, 90.56 0 C93.54 1.47, 97.11 1.74, 98.06 7.5 C98.33 11.33, 98.69 17.81, 98.06 22.5 C97.48 26.1, 94.9 28.93, 90.56 30 C73.37 30.77, 51.41 30.99, 7.5 30 C4.48 32.06, 1.39 26.78, 0 22.5 C0.01 15.93, 1.34 13.93, 0 7.5 C-0.96 1.59, 1.76 0.09, 7.5 0" stroke="none" stroke-width="0" fill="#ffffff"></path><path d="M7.5 0 C39.68 0.09, 72.77 0.33, 90.56 0 M7.5 0 C35.22 0.05, 63.1 0.33, 90.56 0 M90.56 0 C95.26 -0.35, 98.55 2.29, 98.06 7.5 M90.56 0 C95.75 -0.21, 98.15 2.34, 98.06 7.5 M98.06 7.5 C98.01 12.76, 98.1 18.18, 98.06 22.5 M98.06 7.5 C98.1 11.24, 98.03 14.49, 98.06 22.5 M98.06 22.5 C98.33 27.16, 95.91 29.76, 90.56 30 M98.06 22.5 C98.11 28.03, 96.04 30.2, 90.56 30 M90.56 30 C65.78 29.72, 40.4 30.38, 7.5 30 M90.56 30 C72.84 30.15, 54.56 29.77, 7.5 30 M7.5 30 C2.25 30.09, 0.29 27.96, 0 22.5 M7.5 30 C2.25 29.82, -0.49 27.34, 0 22.5 M0 22.5 C-0.11 17.44, 0.06 11.38, 0 7.5 M0 22.5 C-0.01 18.48, -0.07 14.91, 0 7.5 M0 7.5 C0.34 2.84, 2.33 0.04, 7.5 0 M0 7.5 C-0.28 2.35, 2.9 -0.52, 7.5 0" stroke="#e03131" stroke-width="1" fill="none"></path></g><g transform="translate(332.3477153276142 113.76288202026711) rotate(0 22.295982360839844 10.000000000000028)"><text x="22.295982360839844" y="0" font-family="Virgil, Segoe UI Emoji" font-size="16px" fill="#e03131" text-anchor="middle" style="white-space: pre;" direction="ltr" dominant-baseline="text-before-edge">TRPC</text></g></svg>